<?xml version="1.0" encoding="UTF-8"?>
<svg width="306px" height="294px" viewBox="0 0 306 294" version="1.1" xmlns="http://www.w3.org/2000/svg" xmlns:xlink="http://www.w3.org/1999/xlink">
    <!-- Generator: Sketch 51.2 (57519) - http://www.bohemiancoding.com/sketch -->
    <title>chopsticks</title>
    <desc>Created with Sketch.</desc>
    <defs>
        <linearGradient x1="50%" y1="0%" x2="50%" y2="100%" id="linearGradient-1">
            <stop stop-color="#FFD250" offset="0%"></stop>
            <stop stop-color="#FF2727" offset="100%"></stop>
        </linearGradient>
        <linearGradient x1="50%" y1="0%" x2="50%" y2="100%" id="linearGradient-2">
            <stop stop-color="#FFB649" offset="0%"></stop>
            <stop stop-color="#FF0000" offset="100%"></stop>
        </linearGradient>
    </defs>
    <g id="Page-1" stroke="none" stroke-width="1" fill="none" fill-rule="evenodd">
        <g id="landingpage" transform="translate(-859.000000, -211.000000)">
            <g id="Group" transform="translate(412.000000, 180.000000)">
                <g id="riceimg" transform="translate(23.000000, 0.000000)">
                    <g id="chopsticks" transform="translate(423.157750, 30.100000)">
                        <path d="M167.006808,-11.472088 L175.669525,-11.472088 C177.878664,-11.472088 179.669525,-9.68122704 179.669525,-7.47208804 C179.669525,-7.43679081 179.669058,-7.40149512 179.668124,-7.36621026 L170.299597,346.447171 C170.266567,347.694596 170.185978,348.138252 170.021189,348.618131 C169.856401,349.09801 169.610111,349.512281 169.267248,349.886292 C168.924385,350.260303 168.573123,350.54304 167.493014,351.167961 L166.047677,352.004193 C164.719863,352.77243 163.020678,352.318803 162.252442,350.990989 C162.007835,350.568213 161.879037,350.088411 161.879037,349.599973 L161.879037,-6.34431764 C161.879037,-8.12735512 162.064688,-8.7739276 162.413303,-9.42577945 C162.761917,-10.0776313 163.273494,-10.5892085 163.925346,-10.9378226 C164.577198,-11.2864368 165.22377,-11.472088 167.006808,-11.472088 Z" id="Rectangle" fill="url(#linearGradient-1)" transform="translate(170.774281, 170.452986) rotate(46.000000) translate(-170.774281, -170.452986) "></path>
                        <path d="M113.419994,-31.2686206 L122.082712,-31.2686206 C124.291851,-31.2686206 126.082712,-29.4777596 126.082712,-27.2686206 C126.082712,-27.2333234 126.082245,-27.1980277 126.08131,-27.1627428 L116.712783,326.650638 C116.679753,327.898063 116.599164,328.341719 116.434376,328.821598 C116.269588,329.301477 116.023297,329.715749 115.680434,330.08976 C115.337572,330.463771 114.986309,330.746507 113.906201,331.371428 L112.460864,332.207661 C111.133049,332.975897 109.433865,332.52227 108.665628,331.194456 C108.421022,330.77168 108.292224,330.291879 108.292224,329.803441 L108.292224,-26.1408502 C108.292224,-27.9238877 108.477875,-28.5704602 108.826489,-29.222312 C109.175103,-29.8741639 109.68668,-30.385741 110.338532,-30.7343552 C110.990384,-31.0829694 111.636956,-31.2686206 113.419994,-31.2686206 Z" id="Rectangle-Copy" fill="url(#linearGradient-2)" transform="translate(117.187468, 150.656453) rotate(37.000000) translate(-117.187468, -150.656453) "></path>
                    </g>
                </g>
            </g>
        </g>
    </g>
</svg>