<?xml version="1.0" encoding="UTF-8"?>
<svg width="524px" height="434px" viewBox="0 0 524 434" version="1.1" xmlns="http://www.w3.org/2000/svg" xmlns:xlink="http://www.w3.org/1999/xlink">
    <!-- Generator: Sketch 51.2 (57519) - http://www.bohemiancoding.com/sketch -->
    <title>ricefoam</title>
    <desc>Created with Sketch.</desc>
    <defs>
        <linearGradient x1="50%" y1="0%" x2="18.2936412%" y2="79.915968%" id="linearGradient-1">
            <stop stop-color="#FCFCFC" offset="0%"></stop>
            <stop stop-color="#FF5353" offset="100%"></stop>
        </linearGradient>
        <linearGradient x1="91.1865542%" y1="20.8903171%" x2="24.0045498%" y2="113.173767%" id="linearGradient-2">
            <stop stop-color="#FCFCFC" offset="0%"></stop>
            <stop stop-color="#A606FF" offset="100%"></stop>
        </linearGradient>
        <linearGradient x1="50%" y1="0%" x2="16.9243421%" y2="100%" id="linearGradient-3">
            <stop stop-color="#FFE5F3" offset="0%"></stop>
            <stop stop-color="#FE5C7F" offset="100%"></stop>
        </linearGradient>
    </defs>
    <g id="Page-1" stroke="none" stroke-width="1" fill="none" fill-rule="evenodd">
        <g id="landingpage" transform="translate(-568.000000, -294.000000)">
            <g id="Group" transform="translate(412.000000, 180.000000)">
                <g id="riceimg" transform="translate(23.000000, 0.000000)">
                    <g id="ricefoam" transform="translate(133.364883, 114.380000)">
                        <path d="M359.706299,214.02413 C508.491329,179.410706 465.935587,88.8487701 416.900582,51.6325866 C382.740332,25.7059225 374.930221,81.7947288 328.752826,81.7947288 C255.276164,81.7947288 152.22861,55.2097054 79.3885997,92.4222366 C40.7407622,112.166658 0,175.004445 0,214.02413 C0,278.255798 34.7442786,328.77217 61.6861702,319.285437 C73.180058,315.238229 63.7849663,321.530865 120.777745,319.285437 C164.30167,317.570661 271.533685,234.536652 359.706299,214.02413 Z" id="Oval-2" fill="url(#linearGradient-1)"></path>
                        <path d="M200.379687,433.036289 C316.159644,433.036289 129.489817,317.847438 339.127974,269.077112 C413.159057,251.854483 448.102557,188.76114 463.615544,154.808172 C480.199746,118.510657 543.275373,83.57834 517.192211,63.7819572 C499.652829,50.4700616 403.29548,162.365287 368.529894,195.209409 C333.587464,228.220602 307.552457,220.298702 283.722336,220.298702 C167.942379,220.298702 75.1594808,161.494799 75.1594808,277.375876 C75.1594808,393.256954 84.5997296,433.036289 200.379687,433.036289 Z" id="Oval-2-Copy-2" fill="url(#linearGradient-2)"></path>
                        <path d="M210.401459,168.493765 C301.377634,168.493765 399.417557,186.878111 399.417557,95.8224793 C399.417557,60.6263428 376.068979,102.370699 350.919001,95.8224793 C337.719709,92.3858216 346.823443,31.2112847 333.170682,20.8492252 C305.536809,-0.124103442 304.727907,32.6960752 267.372786,32.6960752 C222.454243,32.6960752 297.089372,2.72535722 267.372786,0.055058944 C236.902619,-2.68295533 36.6849847,97.3995417 36.6849847,143.497399 C36.6849847,234.553031 119.425285,168.493765 210.401459,168.493765 Z" id="Oval-2-Copy" fill="url(#linearGradient-3)"></path>
                    </g>
                </g>
            </g>
        </g>
    </g>
</svg>